<svg width="2203" height="882" viewBox="0 0 2203 882" fill="none" xmlns="http://www.w3.org/2000/svg">
<g clip-path="url(#clip0_55_17)">
<rect width="2203" height="882" fill="white"/>
<path d="M396.225 365.788C389.766 365.791 383.507 367.935 378.516 371.855C373.525 375.775 370.111 381.227 368.854 387.284C367.597 393.341 368.575 399.627 371.623 405.071C374.671 410.515 379.599 414.78 385.568 417.141C391.536 419.501 398.177 419.81 404.357 418.015C410.537 416.22 415.876 412.432 419.462 407.296C423.048 402.161 424.661 395.995 424.025 389.851C423.389 383.706 420.545 377.962 415.975 373.598C413.384 371.116 410.305 369.148 406.916 367.808C403.526 366.467 399.893 365.781 396.225 365.788Z" fill="#699BF7"/>
<path d="M551.665 259.058C551.66 259.028 551.66 258.998 551.665 258.968C550.78 255.261 548.83 251.864 546.033 249.161C543.236 246.457 539.705 244.555 535.837 243.668C504.663 236.398 455.622 244.148 401.277 264.948C346.504 285.948 295.182 316.948 260.493 350.168C249.376 360.741 239.046 372.045 229.581 383.998C206.222 382.998 185.645 386.178 168.311 393.408C107.909 418.818 90.659 483.848 86.0666 510.548C85.4021 514.341 85.6623 518.231 86.827 521.913C87.9917 525.594 90.0294 528.97 92.7816 531.776C95.5338 534.582 98.9263 536.743 102.695 538.091C106.464 539.439 110.507 539.938 114.51 539.548H114.646L181.931 532.528C182.015 533.348 182.109 534.098 182.182 534.788C183.046 542.625 186.703 549.941 192.539 555.508L225.376 586.918C231.191 592.504 238.842 596.004 247.04 596.828L249.29 597.058L241.967 661.298V661.428C241.593 664.888 241.978 668.384 243.098 671.693C244.217 675.003 246.047 678.052 248.47 680.647C250.893 683.242 253.856 685.325 257.169 686.763C260.482 688.201 264.073 688.962 267.711 688.998C269.166 689 270.618 688.886 272.053 688.658C300.14 684.338 368.137 668.048 394.645 609.998C402.146 593.538 405.462 573.948 404.531 551.658C417.091 542.63 428.96 532.755 440.046 522.108C475.017 488.848 507.551 440.188 529.289 388.588C550.932 337.228 559.082 289.998 551.665 259.058ZM439.669 433.938C431.074 442.163 420.119 447.766 408.192 450.039C396.264 452.312 383.9 451.151 372.662 446.705C361.424 442.259 351.819 434.726 345.061 425.06C338.302 415.394 334.695 404.029 334.695 392.403C334.695 380.777 338.302 369.412 345.061 359.746C351.819 350.08 361.424 342.547 372.662 338.1C383.9 333.654 396.264 332.494 408.192 334.766C420.119 337.039 431.074 342.642 439.669 350.868C445.431 356.292 450.006 362.758 453.129 369.889C456.251 377.019 457.86 384.672 457.86 392.403C457.86 400.133 456.251 407.786 453.129 414.917C450.006 422.047 445.431 428.513 439.669 433.938Z" fill="#699BF7"/>
<path d="M221.61 595.437C217.562 594.957 213.47 595.907 210.103 598.107C203.418 602.477 196.702 606.797 189.924 611.007C176.209 619.527 159.806 604.567 167.956 591.007L180.666 570.007C182.483 567.466 183.495 564.478 183.58 561.401C183.665 558.324 182.82 555.289 181.146 552.66C179.472 550.031 177.04 547.919 174.142 546.577C171.244 545.236 168.003 544.722 164.807 545.097C150.7 546.803 137.588 552.945 127.534 562.557C123.706 566.227 112.062 577.367 105.796 619.817C104.013 632.011 102.889 644.284 102.428 656.587C102.371 658.723 102.761 660.848 103.577 662.836C104.392 664.825 105.616 666.638 107.176 668.167C108.736 669.697 110.6 670.912 112.66 671.742C114.719 672.571 116.931 672.998 119.165 672.997H119.584C132.465 672.561 145.314 671.493 158.08 669.797C202.508 663.797 214.162 652.657 217.991 648.997C228.092 639.383 234.502 626.789 236.182 613.257C236.72 609.047 235.487 604.806 232.755 601.464C230.022 598.123 226.014 595.955 221.61 595.437Z" fill="#699BF7"/>
<path d="M930.686 545V342.091H1065.03V377.461H973.587V425.811H1056.12V461.181H973.587V545H930.686ZM1135.3 342.091V545H1093.1V342.091H1135.3ZM1195.17 602.068C1189.82 602.068 1184.8 601.639 1180.11 600.78C1175.49 599.988 1171.66 598.964 1168.62 597.709L1178.13 566.202C1183.08 567.722 1187.54 568.547 1191.51 568.679C1195.53 568.811 1199 567.887 1201.91 565.905C1204.88 563.924 1207.29 560.555 1209.14 555.799L1211.62 549.359L1157.03 392.818H1201.41L1232.92 504.577H1234.51L1266.31 392.818H1310.99L1251.84 561.447C1249 569.637 1245.14 576.771 1240.25 582.847C1235.43 588.99 1229.32 593.713 1221.92 597.015C1214.52 600.384 1205.61 602.068 1195.17 602.068ZM1396.45 547.972C1381.06 547.972 1367.75 544.703 1356.52 538.164C1345.36 531.559 1336.74 522.377 1330.66 510.62C1324.58 498.797 1321.54 485.092 1321.54 469.504C1321.54 453.783 1324.58 440.045 1330.66 428.288C1336.74 416.464 1345.36 407.283 1356.52 400.744C1367.75 394.139 1381.06 390.837 1396.45 390.837C1411.84 390.837 1425.11 394.139 1436.27 400.744C1447.5 407.283 1456.16 416.464 1462.23 428.288C1468.31 440.045 1471.35 453.783 1471.35 469.504C1471.35 485.092 1468.31 498.797 1462.23 510.62C1456.16 522.377 1447.5 531.559 1436.27 538.164C1425.11 544.703 1411.84 547.972 1396.45 547.972ZM1396.64 515.277C1403.65 515.277 1409.49 513.295 1414.18 509.332C1418.87 505.303 1422.4 499.821 1424.78 492.886C1427.23 485.95 1428.45 478.057 1428.45 469.206C1428.45 460.355 1427.23 452.462 1424.78 445.527C1422.4 438.592 1418.87 433.109 1414.18 429.08C1409.49 425.051 1403.65 423.037 1396.64 423.037C1389.58 423.037 1383.63 425.051 1378.81 429.08C1374.05 433.109 1370.45 438.592 1368.01 445.527C1365.63 452.462 1364.44 460.355 1364.44 469.206C1364.44 478.057 1365.63 485.95 1368.01 492.886C1370.45 499.821 1374.05 505.303 1378.81 509.332C1383.63 513.295 1389.58 515.277 1396.64 515.277ZM1499.58 545V342.091H1633.93V377.461H1542.49V425.811H1625.02V461.181H1542.49V545H1499.58ZM1662 545V392.818H1704.2V545H1662ZM1683.2 373.201C1676.92 373.201 1671.54 371.12 1667.05 366.959C1662.62 362.732 1660.41 357.679 1660.41 351.8C1660.41 345.988 1662.62 341.001 1667.05 336.84C1671.54 332.613 1676.92 330.499 1683.2 330.499C1689.47 330.499 1694.82 332.613 1699.25 336.84C1703.74 341.001 1705.99 345.988 1705.99 351.8C1705.99 357.679 1703.74 362.732 1699.25 366.959C1694.82 371.12 1689.47 373.201 1683.2 373.201ZM1780.22 342.091V545H1738.01V342.091H1780.22ZM1883.38 547.972C1867.73 547.972 1854.25 544.802 1842.96 538.461C1831.73 532.054 1823.08 523.005 1817 511.314C1810.93 499.557 1807.89 485.653 1807.89 469.603C1807.89 453.949 1810.93 440.21 1817 428.387C1823.08 416.564 1831.63 407.349 1842.66 400.744C1853.76 394.139 1866.77 390.837 1881.7 390.837C1891.74 390.837 1901.08 392.455 1909.74 395.691C1918.46 398.862 1926.05 403.651 1932.53 410.058C1939.06 416.464 1944.15 424.523 1947.78 434.232C1951.42 443.876 1953.23 455.17 1953.23 468.116V479.708H1824.73V453.552H1913.5C1913.5 447.475 1912.18 442.092 1909.54 437.403C1906.9 432.713 1903.23 429.047 1898.54 426.405C1893.92 423.697 1888.54 422.343 1882.39 422.343C1875.99 422.343 1870.31 423.829 1865.35 426.801C1860.46 429.708 1856.63 433.638 1853.86 438.592C1851.08 443.479 1849.66 448.929 1849.6 454.939V479.808C1849.6 487.337 1850.99 493.843 1853.76 499.326C1856.6 504.808 1860.6 509.035 1865.75 512.007C1870.9 514.98 1877.01 516.466 1884.08 516.466C1888.77 516.466 1893.06 515.805 1896.96 514.484C1900.85 513.163 1904.19 511.182 1906.96 508.54C1909.74 505.898 1911.85 502.661 1913.3 498.83L1952.34 501.406C1950.36 510.786 1946.3 518.976 1940.15 525.977C1934.08 532.913 1926.22 538.329 1916.57 542.226C1907 546.057 1895.93 547.972 1883.38 547.972ZM2107.4 436.214L2068.76 438.592C2068.1 435.289 2066.68 432.317 2064.5 429.675C2062.32 426.967 2059.44 424.82 2055.88 423.235C2052.38 421.583 2048.18 420.758 2043.29 420.758C2036.75 420.758 2031.24 422.145 2026.75 424.919C2022.26 427.627 2020.01 431.26 2020.01 435.817C2020.01 439.45 2021.46 442.522 2024.37 445.032C2027.28 447.542 2032.26 449.556 2039.33 451.075L2066.87 456.624C2081.67 459.662 2092.7 464.55 2099.96 471.287C2107.23 478.024 2110.86 486.875 2110.86 497.839C2110.86 507.813 2107.92 516.565 2102.05 524.095C2096.23 531.625 2088.24 537.503 2078.07 541.73C2067.96 545.892 2056.31 547.972 2043.09 547.972C2022.95 547.972 2006.9 543.778 1994.94 535.39C1983.05 526.935 1976.09 515.442 1974.04 500.911L2015.55 498.731C2016.81 504.874 2019.84 509.564 2024.67 512.8C2029.49 515.971 2035.66 517.556 2043.19 517.556C2050.59 517.556 2056.54 516.136 2061.03 513.295C2065.59 510.389 2067.9 506.657 2067.96 502.1C2067.9 498.269 2066.28 495.131 2063.11 492.688C2059.94 490.178 2055.05 488.262 2048.45 486.941L2022.09 481.69C2007.23 478.718 1996.17 473.566 1988.9 466.234C1981.7 458.902 1978.1 449.556 1978.1 438.195C1978.1 428.42 1980.74 419.998 1986.03 412.931C1991.38 405.863 1998.87 400.414 2008.52 396.583C2018.23 392.752 2029.59 390.837 2042.6 390.837C2061.82 390.837 2076.95 394.899 2087.98 403.023C2099.07 411.147 2105.55 422.211 2107.4 436.214Z" fill="#2F88FF"/>
</g>
<defs>
<clipPath id="clip0_55_17">
<rect width="2203" height="882" fill="white"/>
</clipPath>
</defs>
</svg>
